<svg xmlns="http://www.w3.org/2000/svg" width="69" height="23" viewBox="0 0 69 23" fill="none">
    <path
        d="M55.751 5.81018C55.751 5.62911 56.4999 5.53857 57.9979 5.53857C59.5123 5.53857 60.2942 5.62088 60.3436 5.78549L62.1213 11.6126L63.825 5.73611C63.8909 5.60442 64.4012 5.53857 65.3559 5.53857C67.5452 5.53857 68.5905 5.64557 68.4917 5.85956L62.6892 22.3781C62.6728 22.4768 62.2201 22.5262 61.3312 22.5262C60.4588 22.5262 59.644 22.4933 58.8868 22.4275C58.1296 22.3781 57.7674 22.3122 57.8004 22.2299L59.9485 17.0447L55.751 5.81018Z"
        fill="#E2DAEC" />
    <path
        d="M46.9919 22.5266C46.9919 22.6418 46.2841 22.6994 44.8684 22.6994C43.4692 22.6994 42.7697 22.6418 42.7697 22.5266V9.81052H41.9301C41.5351 9.81052 41.2635 9.44838 41.1153 8.7241C41.066 8.49365 41.0413 8.19735 41.0413 7.83521C41.0413 7.47307 41.1565 7.04509 41.3869 6.55126C41.7162 5.82698 42.2429 5.46484 42.9672 5.46484C43.4446 5.46484 43.8808 5.58007 44.2758 5.81052C44.6874 6.02451 44.9672 6.23028 45.1153 6.42781C45.2799 6.60888 45.3622 6.71587 45.3622 6.74879C46.4651 5.89283 47.6585 5.46484 48.9425 5.46484C50.2264 5.46484 51.3293 5.9669 52.2511 6.97102C53.1729 7.95867 53.6339 9.49777 53.6339 11.5883C53.6339 13.6624 53.1729 15.2755 52.2511 16.4278C51.3293 17.5636 50.1606 18.1315 48.745 18.1315C48.103 18.1315 47.5186 18.0986 46.9919 18.0327V22.5266ZM48.0042 9.78583C47.7244 9.78583 47.4528 9.87637 47.1894 10.0574V14.4278C47.4692 14.4607 47.6915 14.4772 47.8561 14.4772C48.0371 14.4772 48.1771 14.4772 48.2758 14.4772C48.9507 14.4113 49.2882 13.5471 49.2882 11.8846C49.2882 10.4854 48.8602 9.78583 48.0042 9.78583Z"
        fill="#E2DAEC" />
    <path
        d="M32.0624 22.5266C32.0624 22.6418 31.3546 22.6994 29.939 22.6994C28.5398 22.6994 27.8402 22.6418 27.8402 22.5266V9.81052H27.0007C26.6056 9.81052 26.334 9.44838 26.1859 8.7241C26.1365 8.49365 26.1118 8.19735 26.1118 7.83521C26.1118 7.47307 26.227 7.04509 26.4575 6.55126C26.7867 5.82698 27.3135 5.46484 28.0377 5.46484C28.5151 5.46484 28.9513 5.58007 29.3464 5.81052C29.7579 6.02451 30.0377 6.23028 30.1859 6.42781C30.3505 6.60888 30.4328 6.71587 30.4328 6.74879C31.5357 5.89283 32.7291 5.46484 34.0131 5.46484C35.297 5.46484 36.3999 5.9669 37.3217 6.97102C38.2435 7.95867 38.7044 9.49777 38.7044 11.5883C38.7044 13.6624 38.2435 15.2755 37.3217 16.4278C36.3999 17.5636 35.2312 18.1315 33.8155 18.1315C33.1735 18.1315 32.5892 18.0986 32.0624 18.0327V22.5266ZM33.0748 9.78583C32.7949 9.78583 32.5233 9.87637 32.26 10.0574V14.4278C32.5398 14.4607 32.762 14.4772 32.9266 14.4772C33.1077 14.4772 33.2476 14.4772 33.3464 14.4772C34.0213 14.4113 34.3587 13.5471 34.3587 11.8846C34.3587 10.4854 33.9307 9.78583 33.0748 9.78583Z"
        fill="#E2DAEC" />
    <path
        d="M11.9636 5.83508C11.9636 5.65401 12.6714 5.56348 14.0871 5.56348C15.5027 5.56348 16.2105 5.65401 16.2105 5.83508V13.045C16.2105 13.868 16.4739 14.2795 17.0007 14.2795C17.3957 14.2795 17.8402 14.1067 18.334 13.761V5.83508C18.334 5.67047 19.0336 5.58817 20.4328 5.58817C21.8319 5.58817 22.5315 5.67047 22.5315 5.83508V13.9338H23.1735C23.7332 13.9338 24.013 14.4688 24.013 15.5388C24.013 16.082 23.8978 16.6334 23.6673 17.1931C23.3381 17.9174 22.8937 18.2795 22.334 18.2795C21.2311 18.2795 20.4163 17.8268 19.8895 16.9215L19.8649 16.9462C18.8607 17.8351 17.7826 18.2795 16.6303 18.2795C15.0336 18.2795 13.8566 17.8845 13.0994 17.0943C12.3422 16.2878 11.9636 14.9627 11.9636 13.119V5.83508Z"
        fill="#E2DAEC" />
    <path
        d="M0 16.5758V1.21774C0 0.872058 0.831276 0.699219 2.49383 0.699219C4.17284 0.699219 5.01235 0.872058 5.01235 1.21774V13.3165H8.81481C9.11111 13.3165 9.31687 13.7033 9.4321 14.477C9.48148 14.8556 9.50617 15.2424 9.50617 15.6375C9.50617 16.0325 9.48148 16.4358 9.4321 16.8474C9.30041 17.6375 9.08642 18.0325 8.79012 18.0325H1.18519C0.823045 18.0325 0.534979 17.8844 0.320988 17.5881C0.106996 17.2918 0 16.9544 0 16.5758Z"
        fill="#E2DAEC" />
</svg>